<svg width="14" height="16" viewBox="0 0 14 16" fill="#3d67d6" xmlns="http://www.w3.org/2000/svg">
  <path fill-rule="evenodd" clip-rule="evenodd" d="M9.33333 0C10.1925 0 10.8889 0.716344 10.8889 1.6V11.2C10.8889 12.0837 10.1925 12.8 9.33333 12.8H1.55556C0.696446 12.8 0 12.0837 0 11.2V1.6C0 0.716344 0.696446 0 1.55556 0H9.33333ZM1.55556 1.6H9.33333V11.2H1.55556V1.6Z"/>
  <path d="M12.4444 12.8V4C12.4444 3.55818 12.7927 3.2 13.2222 3.2C13.6518 3.2 14 3.55818 14 4V12.8C14 14.5673 12.6071 16 10.8889 16H3.88889C3.45934 16 3.11111 15.6418 3.11111 15.2C3.11111 14.7582 3.45934 14.4 3.88889 14.4H10.8889C11.748 14.4 12.4444 13.6837 12.4444 12.8Z" />
</svg>

