<svg width="14" height="14" viewBox="0 0 14 14" xmlns="http://www.w3.org/2000/svg" fill="#ffffff">
<path d="M9.78888 5.89479L7.77779 7.80004V0.736844C7.77779 0.711409 7.77639 0.686275 7.77374 0.661509C7.73392 0.289948 7.40267 0 7.00001 0C6.57044 0 6.22223 0.3299 6.22223 0.736844V7.80004L4.21103 5.89471C3.9073 5.60698 3.41484 5.60698 3.11109 5.89471C2.80736 6.18252 2.80736 6.64902 3.11109 6.93683L6.45004 10.1C6.59588 10.2382 6.79374 10.3159 7.00001 10.3159C7.20628 10.3159 7.40407 10.2382 7.54998 10.1L10.8889 6.93683C10.9269 6.90087 10.9601 6.86211 10.9885 6.82122C11.1879 6.53525 11.1547 6.14656 10.8889 5.89479C10.5851 5.60701 10.0927 5.60701 9.78888 5.89479Z"/>
<path d="M0 13.2632C0 12.8562 0.348226 12.5263 0.777777 12.5263H13.2222C13.6518 12.5263 14 12.8562 14 13.2632C14 13.6701 13.6518 14 13.2222 14H0.777777C0.348226 14 0 13.6701 0 13.2632Z"/>
</svg>