<svg width="36" height="33" viewBox="0 0 36 33" fill="currentColor" xmlns="http://www.w3.org/2000/svg">
<path fill-rule="evenodd" clip-rule="evenodd" d="M32.8717 12.7198L29.7433 14.61V24.0895C29.7433 25.2418 29.1524 26.3077 28.1912 26.8884L18.8062 32.5587C17.8321 33.1471 16.6277 33.1471 15.6536 32.5587L6.26862 26.8884C5.30753 26.3077 4.71656 25.2418 4.71656 24.0895V14.61L0.776033 12.2291C-0.258677 11.6039 -0.258679 10.0554 0.776033 9.43026L15.6536 0.441375C16.6277 -0.147125 17.8321 -0.147125 18.8062 0.441375L35.224 10.3608C35.7045 10.6512 36 11.184 36 11.7602V20.5502C36 21.445 35.2997 22.1703 34.4358 22.1703C33.5719 22.1703 32.8717 21.445 32.8717 20.5502V12.7198ZM7.8449 16.5V24.0895L17.2299 29.7598L26.615 24.0895V16.5L18.8062 21.218C17.8321 21.8064 16.6277 21.8064 15.6536 21.218L7.8449 16.5ZM29.7913 10.8297L17.2299 3.24019L4.66849 10.8297L17.2299 18.4191L29.7913 10.8297Z" fill="#1D1E1E"/>
</svg>
