<svg width="15" height="15" viewBox="0 0 15 15" fill="currentColor" xmlns="http://www.w3.org/2000/svg">
<path fill-rule="evenodd" clip-rule="evenodd" d="M7.50621 0.5C3.35547 0.5 0 3.70832 0 7.67745C0 10.8502 2.14996 13.5358 5.13253 14.4864C5.50543 14.5578 5.64202 14.3319 5.64202 14.1419C5.64202 13.9755 5.62973 13.4052 5.62973 12.8109C3.54169 13.2388 3.10687 11.9553 3.10687 11.9553C2.77131 11.1235 2.27411 10.9097 2.27411 10.9097C1.59069 10.47 2.32389 10.47 2.32389 10.47C3.08198 10.5175 3.47977 11.2067 3.47977 11.2067C4.15074 12.2999 5.23194 11.991 5.66691 11.8009C5.72899 11.3374 5.92796 11.0166 6.13922 10.8384C4.47386 10.672 2.72168 10.0541 2.72168 7.29712C2.72168 6.51283 3.01975 5.87117 3.49206 5.37213C3.41754 5.19392 3.1565 4.45703 3.56673 3.47076C3.56673 3.47076 4.20052 3.28059 5.62958 4.20751C6.24141 4.05039 6.87238 3.97047 7.50621 3.9698C8.13999 3.9698 8.78607 4.05307 9.38268 4.20751C10.8119 3.28059 11.4457 3.47076 11.4457 3.47076C11.8559 4.45703 11.5947 5.19392 11.5202 5.37213C12.005 5.87117 12.2907 6.51283 12.2907 7.29712C12.2907 10.0541 10.5386 10.66 8.86075 10.8384C9.13424 11.0641 9.37024 11.4918 9.37024 12.1692C9.37024 13.1317 9.35794 13.9042 9.35794 14.1418C9.35794 14.3319 9.49469 14.5578 9.86743 14.4865C12.85 13.5357 15 10.8502 15 7.67745C15.0123 3.70832 11.6445 0.5 7.50621 0.5Z" fill="#3D67D6"/>
</svg>
