<svg width="282" height="463" viewBox="0 0 282 463" fill="none" xmlns="http://www.w3.org/2000/svg">
<path d="M108 463C98.4 463 89.2235 462.145 80.4706 460.436C71.7177 459.012 63.9529 456.163 57.1765 451.89C50.6824 447.902 45.4588 442.205 41.5059 434.799C37.8353 427.677 36 418.419 36 407.025V315.584C36 309.317 34.1647 304.332 30.4941 300.629C26.8235 296.925 22.1647 294.362 16.5176 292.937C11.1529 291.228 5.64706 290.374 0 290.374V254.054C5.64706 254.054 11.1529 253.342 16.5176 251.917C22.1647 250.208 26.8235 247.502 30.4941 243.799C34.1647 240.095 36 235.253 36 229.271V136.975C36 125.581 37.8353 116.323 41.5059 109.201C45.4588 101.795 50.6824 96.0977 57.1765 92.1096C63.9529 87.8367 71.7177 84.9881 80.4706 83.5638C89.2235 81.8546 98.4 81 108 81V104.928C103.2 104.928 97.8353 105.641 91.9059 107.065C86.2588 108.489 81.3176 111.053 77.0824 114.756C73.1294 118.459 71.0118 124.014 70.7294 131.421L66.9176 224.998C66.3529 239.241 63.1059 250.35 57.1765 258.327C51.2471 266.303 40.2353 270.291 24.1412 270.291V274.136C34.8706 274.136 43.2 275.988 49.1294 279.691C55.3412 283.394 59.7177 288.664 62.2588 295.501C65.0824 302.053 66.6353 310.029 66.9176 319.43L70.7294 412.579C71.0118 419.701 73.1294 425.113 77.0824 428.817C81.3176 432.805 86.2588 435.511 91.9059 436.935C97.5529 438.359 102.918 439.072 108 439.072V463Z" fill="url(#paint0_linear_93_471)"/>
<path d="M169 390C179.044 390 188.646 389.128 197.804 387.383C206.962 385.928 215.086 383.02 222.176 378.658C228.971 374.586 234.437 368.77 238.573 361.208C242.413 353.937 244.333 344.485 244.333 332.852V239.497C244.333 233.098 246.254 228.009 250.094 224.228C253.935 220.447 258.809 217.83 264.718 216.376C270.331 214.631 276.092 213.758 282 213.758V176.678C276.092 176.678 270.331 175.951 264.718 174.497C258.809 172.752 253.935 169.989 250.094 166.208C246.254 162.427 244.333 157.483 244.333 151.376V57.1476C244.333 45.5145 242.413 36.0626 238.573 28.7919C234.437 21.2304 228.971 15.4139 222.176 11.3423C215.086 6.97985 206.962 4.07158 197.804 2.61744C188.646 0.872481 179.044 0 169 0V24.4295C174.022 24.4295 179.635 25.1566 185.839 26.6107C191.748 28.0649 196.918 30.6823 201.349 34.4631C205.485 38.2438 207.701 43.915 207.996 51.4765L211.984 147.013C212.575 161.555 215.973 172.897 222.176 181.04C228.38 189.183 239.902 193.255 256.741 193.255V197.181C245.515 197.181 236.8 199.072 230.596 202.852C224.097 206.633 219.518 212.013 216.859 218.993C213.905 225.682 212.28 233.826 211.984 243.423L207.996 338.523C207.701 345.794 205.485 351.32 201.349 355.101C196.918 359.172 191.748 361.935 185.839 363.389C179.931 364.843 174.318 365.57 169 365.57V390Z" fill="url(#paint1_linear_93_471)"/>
<defs>
<linearGradient id="paint0_linear_93_471" x1="54" y1="81" x2="54" y2="463" gradientUnits="userSpaceOnUse">
<stop stop-color="#274D8C"/>
<stop offset="1" stop-color="#3D67D6"/>
</linearGradient>
<linearGradient id="paint1_linear_93_471" x1="225.5" y1="0" x2="225.5" y2="390" gradientUnits="userSpaceOnUse">
<stop stop-color="#274D8C"/>
<stop offset="1" stop-color="#3D67D6"/>
</linearGradient>
</defs>
</svg>
