<svg width="27" height="29" viewBox="0 0 27 29" fill="currentColor" xmlns="http://www.w3.org/2000/svg">
<path fill-rule="evenodd" clip-rule="evenodd" d="M0.375793 14.1067C1.48953 12.1883 3.83486 11.5712 5.67951 12.5071C6.02417 12.682 6.35136 12.911 6.64976 13.196L8.3771 14.8452H8.3955V4.14286C8.3955 1.85482 10.2195 0 12.4695 0C14.7195 0 16.5435 1.85482 16.5435 4.14286L16.5435 9.66667L23.9502 11.623C25.7462 12.0974 27 13.7459 27 15.6328V16.5714C27 23.4355 21.3153 29 14.3028 29C9.31738 29 5.00306 26.1876 2.92537 22.0952C2.88415 22.0141 2.84382 21.9324 2.80438 21.8502L0.286514 16.738C-0.125047 15.9024 -0.0914264 14.9115 0.375793 14.1067ZM13.8275 9.66667C13.8275 10.9246 14.6634 12.0236 15.8607 12.3399L23.2674 14.2962C23.8661 14.4544 24.284 15.0039 24.284 15.6328V16.5714C24.284 21.8118 19.9139 26.2381 14.3028 26.2381C10.3329 26.2381 6.95002 24.002 5.3387 20.8282C5.30682 20.7654 5.27563 20.7023 5.24514 20.6387C5.24107 20.6303 5.23696 20.6218 5.23281 20.6134L2.71736 15.5061C3.15622 14.7568 4.16476 14.6118 4.79067 15.2094L6.51801 16.8587C7.02157 17.3395 7.68636 17.6071 8.3771 17.6071H8.3955C9.8955 17.6071 11.1115 16.3706 11.1115 14.8452V4.14286C11.1115 3.38018 11.7195 2.7619 12.4695 2.7619C13.2195 2.7619 13.8275 3.38018 13.8275 4.14286L13.8275 9.66667Z" fill="white"/>
</svg>
