<svg width="34" height="29" viewBox="0 0 34 29" fill="currentColor" xmlns="http://www.w3.org/2000/svg">
<path fill-rule="evenodd" clip-rule="evenodd" d="M3.64286 0C1.9071 0 0.5 1.44264 0.5 3.22222V19.3333C0.5 21.113 1.9071 22.5556 3.64286 22.5556H15.4286V25.7778H10.7143C9.84642 25.7778 9.14286 26.4991 9.14286 27.3889C9.14286 28.2787 9.84642 29 10.7143 29H23.2857C24.1536 29 24.8571 28.2787 24.8571 27.3889C24.8571 26.4991 24.1536 25.7778 23.2857 25.7778H18.5714V22.5556H30.3571C32.0929 22.5556 33.5 21.113 33.5 19.3333V3.22222C33.5 1.44264 32.0929 0 30.3571 0H3.64286ZM3.64286 3.22222V19.3333H30.3571V3.22222H3.64286Z" fill="#1D1E1E"/>
</svg>
