<svg width="108" height="382" viewBox="0 0 108 382" fill="none" xmlns="http://www.w3.org/2000/svg">
<path d="M108 382C98.4 382 89.2235 381.145 80.4706 379.436C71.7177 378.012 63.9529 375.163 57.1765 370.89C50.6824 366.902 45.4588 361.205 41.5059 353.799C37.8353 346.677 36 337.419 36 326.025V234.584C36 228.317 34.1647 223.332 30.4941 219.629C26.8235 215.925 22.1647 213.362 16.5176 211.937C11.1529 210.228 5.64706 209.374 0 209.374V173.054C5.64706 173.054 11.1529 172.342 16.5176 170.917C22.1647 169.208 26.8235 166.502 30.4941 162.799C34.1647 159.095 36 154.253 36 148.271V55.9754C36 44.5809 37.8353 35.3229 41.5059 28.2013C45.4588 20.7949 50.6824 15.0977 57.1765 11.1096C63.9529 6.83668 71.7177 3.98806 80.4706 2.56375C89.2235 0.854584 98.4 0 108 0V23.9284C103.2 23.9284 97.8353 24.6406 91.9059 26.0649C86.2588 27.4892 81.3176 30.0529 77.0824 33.7561C73.1294 37.4594 71.0118 43.0142 70.7294 50.4206L66.9176 143.998C66.3529 158.241 63.1059 169.35 57.1765 177.327C51.2471 185.303 40.2353 189.291 24.1412 189.291V193.136C34.8706 193.136 43.2 194.988 49.1294 198.691C55.3412 202.394 59.7177 207.664 62.2588 214.501C65.0824 221.053 66.6353 229.029 66.9176 238.43L70.7294 331.579C71.0118 338.701 73.1294 344.113 77.0824 347.817C81.3176 351.805 86.2588 354.511 91.9059 355.935C97.5529 357.359 102.918 358.072 108 358.072V382Z" fill="url(#paint0_linear_62_84)"/>
<defs>
<linearGradient id="paint0_linear_62_84" x1="54" y1="0" x2="54" y2="382" gradientUnits="userSpaceOnUse">
<stop stop-color="#274D8C"/>
<stop offset="1" stop-color="#3D67D6"/>
</linearGradient>
</defs>
</svg>
