<svg width="113" height="390" viewBox="0 0 113 390" fill="none" xmlns="http://www.w3.org/2000/svg">
<path d="M0 390C10.0444 390 19.6457 389.128 28.8039 387.383C37.9621 385.928 46.0863 383.02 53.1765 378.658C59.9712 374.586 65.4366 368.77 69.5725 361.208C73.4131 353.937 75.3333 344.485 75.3333 332.852V239.497C75.3333 233.098 77.2536 228.009 81.0941 224.228C84.9346 220.447 89.8091 217.83 95.7176 216.376C101.331 214.631 107.092 213.758 113 213.758V176.678C107.092 176.678 101.331 175.951 95.7176 174.497C89.8091 172.752 84.9346 169.989 81.0941 166.208C77.2536 162.427 75.3333 157.483 75.3333 151.376V57.1476C75.3333 45.5145 73.4131 36.0626 69.5725 28.7919C65.4366 21.2304 59.9712 15.4139 53.1765 11.3423C46.0863 6.97985 37.9621 4.07158 28.8039 2.61744C19.6457 0.872481 10.0444 0 0 0V24.4295C5.02222 24.4295 10.6353 25.1566 16.8392 26.6107C22.7477 28.0649 27.9176 30.6823 32.349 34.4631C36.485 38.2438 38.7006 43.915 38.9961 51.4765L42.9843 147.013C43.5752 161.555 46.9725 172.897 53.1765 181.04C59.3804 189.183 70.902 193.255 87.7412 193.255V197.181C76.515 197.181 67.8 199.072 61.5961 202.852C55.0967 206.633 50.5176 212.013 47.8588 218.993C44.9046 225.682 43.2797 233.826 42.9843 243.423L38.9961 338.523C38.7006 345.794 36.485 351.32 32.349 355.101C27.9176 359.172 22.7477 361.935 16.8392 363.389C10.9307 364.843 5.31765 365.57 0 365.57V390Z" fill="url(#paint0_linear_62_85)"/>
<defs>
<linearGradient id="paint0_linear_62_85" x1="56.5" y1="0" x2="56.5" y2="390" gradientUnits="userSpaceOnUse">
<stop stop-color="#274D8C"/>
<stop offset="1" stop-color="#3D67D6"/>
</linearGradient>
</defs>
</svg>
